<?xml version="1.0" encoding="UTF-8"?>
<svg id="Layer_2" data-name="Layer 2" xmlns="http://www.w3.org/2000/svg" viewBox="0 0 592.81 426.86">
  <defs>
    <style>
      .cls-1 {
        fill: none;
        stroke: #231f20;
        stroke-miterlimit: 10;
      }
    </style>
  </defs>
  <g id="Layer_2-2" data-name="Layer 2">
    <line class="cls-1" x1="25.29" y1="421.84" x2="572.83" y2="421.84"/>
    <line class="cls-1" x1="592.31" y1="348.76" x2="592.31" y2="135.3"/>
    <rect class="cls-1" x="34.61" y="358.81" width="13.03" height="37.38"/>
    <line class="cls-1" x1="25.29" y1="358.72" x2="25.29" y2="421.87"/>
    <line class="cls-1" x1="43.44" y1="396.64" x2="43.44" y2="422.41"/>
    <line class="cls-1" x1="62.98" y1="396.64" x2="62.98" y2="422.41"/>
    <rect class="cls-1" x="56.83" y="358.81" width="13.03" height="37.38"/>
    <rect class="cls-1" x="91.14" y="358.81" width="13.03" height="37.38"/>
    <rect class="cls-1" x="113.88" y="358.81" width="13.03" height="37.38"/>
    <rect class="cls-1" x="133.62" y="358.81" width="13.03" height="37.38"/>
    <rect class="cls-1" x="167.69" y="358.81" width="13.03" height="37.38"/>
    <line class="cls-1" x1="169.07" y1="358.74" x2="157.35" y2="358.74"/>
    <line class="cls-1" x1="180.93" y1="358.74" x2="190.81" y2="358.74"/>
    <line class="cls-1" x1="80.2" y1="421.87" x2="80.2" y2="358.72"/>
    <line class="cls-1" x1="97.14" y1="421.84" x2="97.14" y2="396.07"/>
    <line class="cls-1" x1="190.81" y1="358.74" x2="200.3" y2="358.74"/>
    <line class="cls-1" x1="212.16" y1="358.74" x2="221" y2="358.74"/>
    <line class="cls-1" x1="232.86" y1="358.74" x2="238.96" y2="358.74"/>
    <line class="cls-1" x1="250.82" y1="358.74" x2="269.97" y2="358.74"/>
    <line class="cls-1" x1="158.37" y1="358.72" x2="158.37" y2="421.87"/>
    <line class="cls-1" x1="139.62" y1="421.87" x2="139.62" y2="396.07"/>
    <line class="cls-1" x1="118.2" y1="421.84" x2="118.2" y2="396.07"/>
    <line class="cls-1" x1="176.52" y1="396.07" x2="176.52" y2="421.84"/>
    <line class="cls-1" x1="281.83" y1="358.74" x2="290.33" y2="358.74"/>
    <rect class="cls-1" x="190.91" y="358.81" width="13.03" height="37.38"/>
    <rect class="cls-1" x="225.22" y="358.81" width="13.03" height="37.38"/>
    <rect class="cls-1" x="247.96" y="358.81" width="13.03" height="37.38"/>
    <rect class="cls-1" x="267.7" y="358.81" width="13.03" height="37.38"/>
    <rect class="cls-1" x="301.77" y="358.81" width="13.03" height="37.38"/>
    <line class="cls-1" x1="291.11" y1="358.74" x2="279.39" y2="358.74"/>
    <line class="cls-1" x1="195.82" y1="396.07" x2="195.82" y2="421.84"/>
    <line class="cls-1" x1="302.97" y1="358.74" x2="312.85" y2="358.74"/>
    <line class="cls-1" x1="214.28" y1="421.87" x2="214.28" y2="358.72"/>
    <line class="cls-1" x1="231.22" y1="421.84" x2="231.22" y2="396.07"/>
    <line class="cls-1" x1="312.85" y1="358.74" x2="322.34" y2="358.74"/>
    <line class="cls-1" x1="334.2" y1="358.74" x2="343.04" y2="358.74"/>
    <line class="cls-1" x1="354.9" y1="358.74" x2="361" y2="358.74"/>
    <line class="cls-1" x1="372.86" y1="358.74" x2="392.01" y2="358.74"/>
    <line class="cls-1" x1="292.45" y1="358.72" x2="292.45" y2="421.87"/>
    <line class="cls-1" x1="273.7" y1="422.97" x2="273.7" y2="396.07"/>
    <line class="cls-1" x1="252.28" y1="421.84" x2="252.28" y2="396.07"/>
    <line class="cls-1" x1="310.6" y1="396.07" x2="310.6" y2="421.84"/>
    <line class="cls-1" x1="403.87" y1="358.74" x2="412.38" y2="358.74"/>
    <rect class="cls-1" x="325.84" y="358.81" width="13.03" height="37.38"/>
    <rect class="cls-1" x="360.15" y="358.81" width="13.03" height="37.38"/>
    <rect class="cls-1" x="382.89" y="358.81" width="13.03" height="37.38"/>
    <rect class="cls-1" x="402.63" y="358.81" width="13.03" height="37.38"/>
    <rect class="cls-1" x="436.7" y="358.81" width="13.03" height="37.38"/>
    <line class="cls-1" x1="413.92" y1="358.8" x2="402.2" y2="358.8"/>
    <line class="cls-1" x1="330.75" y1="396.13" x2="330.75" y2="421.9"/>
    <line class="cls-1" x1="425.78" y1="358.8" x2="435.66" y2="358.8"/>
    <line class="cls-1" x1="349.21" y1="421.87" x2="349.21" y2="358.72"/>
    <line class="cls-1" x1="366.15" y1="421.9" x2="366.15" y2="396.13"/>
    <line class="cls-1" x1="435.66" y1="358.8" x2="445.15" y2="358.8"/>
    <line class="cls-1" x1="457.01" y1="358.8" x2="465.85" y2="358.8"/>
    <line class="cls-1" x1="477.71" y1="358.8" x2="483.82" y2="358.8"/>
    <line class="cls-1" x1="495.68" y1="358.8" x2="514.83" y2="358.8"/>
    <line class="cls-1" x1="427.38" y1="358.72" x2="427.38" y2="421.87"/>
    <line class="cls-1" x1="408.63" y1="423.03" x2="408.63" y2="396.13"/>
    <line class="cls-1" x1="387.21" y1="421.9" x2="387.21" y2="396.13"/>
    <line class="cls-1" x1="445.53" y1="396.13" x2="445.53" y2="421.9"/>
    <line class="cls-1" x1="526.69" y1="358.8" x2="535.19" y2="358.8"/>
    <line class="cls-1" x1="465.07" y1="396.13" x2="465.07" y2="421.9"/>
    <line class="cls-1" x1="535.19" y1="358.8" x2="541.12" y2="358.8"/>
    <line class="cls-1" x1="539.23" y1="358.66" x2="558.66" y2="358.66"/>
    <line class="cls-1" x1="572.83" y1="421.84" x2="581.72" y2="421.84"/>
    <line class="cls-1" x1="581.72" y1="421.84" x2="581.72" y2="358.74"/>
    <line class="cls-1" x1="592.31" y1="348.76" x2="592.31" y2="358.74"/>
    <line class="cls-1" x1="581.72" y1="358.74" x2="592.31" y2="358.74"/>
    <line class="cls-1" x1=".5" y1="383.16" x2="9.77" y2="383.16"/>
    <line class="cls-1" x1="9.77" y1="426.36" x2="9.77" y2="383.16"/>
    <line class="cls-1" x1="23.94" y1="426.36" x2="9.77" y2="426.36"/>
    <line class="cls-1" x1="24.21" y1="422.46" x2="24.21" y2="426.36"/>
    <line class="cls-1" x1="549.62" y1="358.72" x2="25.29" y2="358.72"/>
    <line class="cls-1" x1="12.53" y1="349.21" x2="579.71" y2="349.21"/>
    <line class="cls-1" x1="579.71" y1="349.21" x2="579.71" y2="147.36"/>
    <line class="cls-1" x1="592.31" y1="135.3" x2="592.31" y2=".5"/>
    <line class="cls-1" x1=".5" y1=".5" x2="592.31" y2=".5"/>
    <line class="cls-1" x1="12.53" y1="14.05" x2="579.71" y2="14.05"/>
    <line class="cls-1" x1="579.71" y1="147.36" x2="579.71" y2="14.05"/>
    <line class="cls-1" x1=".5" y1="383.16" x2=".5" y2=".5"/>
    <line class="cls-1" x1="12.53" y1="349.21" x2="12.53" y2="14.05"/>
    <rect class="cls-1" x="27.94" y="112.46" width="524.33" height="11.02" transform="translate(33.75 -61.92) rotate(12.93)"/>
    <rect class="cls-1" x="36.6" y="288.03" width="498.97" height="8.47" transform="translate(-32.12 35.34) rotate(-6.69)"/>
    <rect class="cls-1" x="12.53" y="211.28" width="567.18" height="30.76"/>
    <rect class="cls-1" x="436.78" y="358.75" width="13.03" height="37.38"/>
    <line class="cls-1" x1="427.46" y1="358.66" x2="427.46" y2="421.81"/>
    <line class="cls-1" x1="445.61" y1="396.58" x2="445.61" y2="422.35"/>
    <line class="cls-1" x1="465.15" y1="396.58" x2="465.15" y2="422.35"/>
    <rect class="cls-1" x="459" y="358.75" width="13.03" height="37.38"/>
    <rect class="cls-1" x="488.91" y="358.75" width="13.03" height="37.38"/>
    <rect class="cls-1" x="511.66" y="358.75" width="13.03" height="37.38"/>
    <rect class="cls-1" x="531.39" y="358.75" width="13.03" height="37.38"/>
    <line class="cls-1" x1="482.37" y1="421.81" x2="482.37" y2="358.66"/>
    <line class="cls-1" x1="497.11" y1="421.78" x2="497.11" y2="396.01"/>
    <line class="cls-1" x1="539.59" y1="421.84" x2="539.59" y2="396.01"/>
    <line class="cls-1" x1="518.17" y1="421.78" x2="518.17" y2="396.01"/>
    <line class="cls-1" x1="558.66" y1="358.17" x2="558.66" y2="421.32"/>
    <line class="cls-1" x1="25.29" y1="421.84" x2="572.83" y2="421.84"/>
    <rect class="cls-1" x="34.61" y="358.81" width="13.03" height="37.38"/>
    <line class="cls-1" x1="43.44" y1="396.64" x2="43.44" y2="422.41"/>
    <line class="cls-1" x1="62.98" y1="396.64" x2="62.98" y2="422.41"/>
    <rect class="cls-1" x="56.83" y="358.81" width="13.03" height="37.38"/>
    <rect class="cls-1" x="91.14" y="358.81" width="13.03" height="37.38"/>
    <rect class="cls-1" x="113.88" y="358.81" width="13.03" height="37.38"/>
    <rect class="cls-1" x="133.62" y="358.81" width="13.03" height="37.38"/>
    <rect class="cls-1" x="167.69" y="358.81" width="13.03" height="37.38"/>
    <line class="cls-1" x1="80.2" y1="421.87" x2="80.2" y2="358.72"/>
    <line class="cls-1" x1="97.14" y1="421.84" x2="97.14" y2="396.07"/>
    <line class="cls-1" x1="158.37" y1="358.72" x2="158.37" y2="421.87"/>
    <line class="cls-1" x1="139.62" y1="421.87" x2="139.62" y2="396.07"/>
    <line class="cls-1" x1="118.2" y1="421.84" x2="118.2" y2="396.07"/>
    <line class="cls-1" x1="176.52" y1="396.07" x2="176.52" y2="421.84"/>
    <rect class="cls-1" x="190.91" y="358.81" width="13.03" height="37.38"/>
    <rect class="cls-1" x="225.22" y="358.81" width="13.03" height="37.38"/>
    <rect class="cls-1" x="247.96" y="358.81" width="13.03" height="37.38"/>
    <rect class="cls-1" x="267.7" y="358.81" width="13.03" height="37.38"/>
    <rect class="cls-1" x="301.77" y="358.81" width="13.03" height="37.38"/>
    <line class="cls-1" x1="195.82" y1="396.07" x2="195.82" y2="421.84"/>
    <line class="cls-1" x1="214.28" y1="421.87" x2="214.28" y2="358.72"/>
    <line class="cls-1" x1="231.22" y1="421.84" x2="231.22" y2="396.07"/>
    <line class="cls-1" x1="292.45" y1="358.72" x2="292.45" y2="421.87"/>
    <line class="cls-1" x1="273.7" y1="422.97" x2="273.7" y2="396.07"/>
    <line class="cls-1" x1="252.28" y1="421.84" x2="252.28" y2="396.07"/>
    <line class="cls-1" x1="310.6" y1="396.07" x2="310.6" y2="421.84"/>
    <rect class="cls-1" x="325.84" y="358.81" width="13.03" height="37.38"/>
    <rect class="cls-1" x="360.15" y="358.81" width="13.03" height="37.38"/>
    <rect class="cls-1" x="382.89" y="358.81" width="13.03" height="37.38"/>
    <rect class="cls-1" x="402.63" y="358.81" width="13.03" height="37.38"/>
    <rect class="cls-1" x="436.7" y="358.81" width="13.03" height="37.38"/>
    <line class="cls-1" x1="330.75" y1="396.13" x2="330.75" y2="421.9"/>
    <line class="cls-1" x1="349.21" y1="421.87" x2="349.21" y2="358.72"/>
    <line class="cls-1" x1="366.15" y1="421.9" x2="366.15" y2="396.13"/>
    <line class="cls-1" x1="427.38" y1="358.72" x2="427.38" y2="421.87"/>
    <line class="cls-1" x1="408.63" y1="423.03" x2="408.63" y2="396.13"/>
    <line class="cls-1" x1="387.21" y1="421.9" x2="387.21" y2="396.13"/>
    <line class="cls-1" x1="445.53" y1="396.13" x2="445.53" y2="421.9"/>
    <line class="cls-1" x1="465.07" y1="396.13" x2="465.07" y2="421.9"/>
    <rect class="cls-1" x="436.78" y="358.75" width="13.03" height="37.38"/>
    <line class="cls-1" x1="427.46" y1="358.66" x2="427.46" y2="421.81"/>
    <line class="cls-1" x1="445.61" y1="396.58" x2="445.61" y2="422.35"/>
    <line class="cls-1" x1="465.15" y1="396.58" x2="465.15" y2="422.35"/>
    <rect class="cls-1" x="459" y="358.75" width="13.03" height="37.38"/>
    <rect class="cls-1" x="488.91" y="358.75" width="13.03" height="37.38"/>
    <rect class="cls-1" x="511.66" y="358.75" width="13.03" height="37.38"/>
    <rect class="cls-1" x="531.39" y="358.75" width="13.03" height="37.38"/>
    <line class="cls-1" x1="482.37" y1="421.81" x2="482.37" y2="358.66"/>
    <line class="cls-1" x1="497.11" y1="421.78" x2="497.11" y2="396.01"/>
    <line class="cls-1" x1="539.59" y1="421.84" x2="539.59" y2="396.01"/>
    <line class="cls-1" x1="518.17" y1="421.78" x2="518.17" y2="396.01"/>
  </g>
</svg>