<?xml version="1.0" encoding="UTF-8"?>
<svg id="Layer_2" data-name="Layer 2" xmlns="http://www.w3.org/2000/svg" viewBox="0 0 592.81 1549.02">
  <defs>
    <style>
      .cls-1 {
        fill: none;
        stroke: #231f20;
        stroke-miterlimit: 10;
      }
    </style>
  </defs>
  <g id="Layer_2-2" data-name="Layer 2">
    <line class="cls-1" x1=".5" y1="1505.32" x2=".5" y2=".43"/>
    <line class="cls-1" x1="592.31" y1="1470.92" x2="592.31" y2="1257.47"/>
    <line class="cls-1" x1="24.21" y1="1546.44" x2="24.21" y2="1480.58"/>
    <line class="cls-1" x1="250.82" y1="1480.9" x2="269.97" y2="1480.9"/>
    <line class="cls-1" x1="403.87" y1="1480.9" x2="412.38" y2="1480.9"/>
    <line class="cls-1" x1="526.69" y1="1480.96" x2="535.19" y2="1480.96"/>
    <line class="cls-1" x1="535.19" y1="1480.96" x2="541.12" y2="1480.96"/>
    <line class="cls-1" x1="560.55" y1="1544.05" x2="560.55" y2="1480.96"/>
    <line class="cls-1" x1="541.12" y1="1480.96" x2="560.55" y2="1480.96"/>
    <line class="cls-1" x1="572.83" y1="1543.76" x2="581.72" y2="1543.76"/>
    <line class="cls-1" x1="581.72" y1="1543.7" x2="581.72" y2="1480.9"/>
    <line class="cls-1" x1="592.31" y1="1470.92" x2="592.31" y2="1480.9"/>
    <line class="cls-1" x1="581.72" y1="1480.9" x2="592.31" y2="1480.9"/>
    <line class="cls-1" x1=".5" y1="1505.32" x2="9.77" y2="1505.32"/>
    <line class="cls-1" x1="9.77" y1="1548.52" x2="9.77" y2="1505.32"/>
    <line class="cls-1" x1="23.94" y1="1548.52" x2="9.77" y2="1548.52"/>
    <line class="cls-1" x1="24.21" y1="1544.62" x2="24.21" y2="1548.52"/>
    <line class="cls-1" x1="148.74" y1="86.42" x2=".5" y2=".43"/>
    <path class="cls-1" d="M148.74,86.42c100.34,926.46,294.16,1066.21,443.57,1171.05"/>
    <circle class="cls-1" cx="112.77" cy="1091.35" r="37.84"/>
    <line class="cls-1" x1="21.24" y1="78.09" x2="58.51" y2="114.23"/>
    <path class="cls-1" d="M58.51,114.23c38.52,291.11,127.36,1080.84,492.33,1193.79"/>
    <line class="cls-1" x1="24.21" y1="1290.32" x2="568.97" y2="1355.82"/>
    <line class="cls-1" x1="569.85" y1="1390.08" x2="568.97" y2="1355.82"/>
    <line class="cls-1" x1="24.21" y1="1290.32" x2="23.94" y2="1323.07"/>
    <line class="cls-1" x1="569.85" y1="1390.08" x2="23.94" y2="1323.07"/>
    <line class="cls-1" x1="560.16" y1="1480.58" x2="24.21" y2="1480.58"/>
    <line class="cls-1" x1="12.53" y1="15.03" x2="12.53" y2="1471.37"/>
    <line class="cls-1" x1="12.53" y1="1471.37" x2="579.71" y2="1471.37"/>
    <line class="cls-1" x1="579.71" y1="1471.37" x2="579.71" y2="1269.52"/>
    <path class="cls-1" d="M128.33,82.9c100.34,926.46,301.97,1082.35,451.38,1187.2"/>
    <line class="cls-1" x1="12.53" y1="15.03" x2="128.33" y2="82.9"/>
    <rect class="cls-1" x="24.21" y="1396.59" width="545.2" height="13.55" transform="translate(-35.79 8.05) rotate(-1.47)"/>
    <line class="cls-1" x1="27.33" y1="1543.76" x2="574.87" y2="1543.76"/>
    <rect class="cls-1" x="36.65" y="1480.72" width="13.03" height="37.38"/>
    <line class="cls-1" x1="45.48" y1="1518.55" x2="45.48" y2="1544.32"/>
    <line class="cls-1" x1="65.02" y1="1518.55" x2="65.02" y2="1544.32"/>
    <rect class="cls-1" x="58.87" y="1480.72" width="13.03" height="37.38"/>
    <rect class="cls-1" x="93.18" y="1480.72" width="13.03" height="37.38"/>
    <rect class="cls-1" x="115.92" y="1480.72" width="13.03" height="37.38"/>
    <rect class="cls-1" x="135.66" y="1480.72" width="13.03" height="37.38"/>
    <rect class="cls-1" x="169.72" y="1480.72" width="13.03" height="37.38"/>
    <line class="cls-1" x1="82.24" y1="1543.79" x2="82.24" y2="1480.64"/>
    <line class="cls-1" x1="99.18" y1="1543.76" x2="99.18" y2="1517.99"/>
    <line class="cls-1" x1="160.41" y1="1480.64" x2="160.41" y2="1543.79"/>
    <line class="cls-1" x1="141.66" y1="1543.79" x2="141.66" y2="1517.99"/>
    <line class="cls-1" x1="120.24" y1="1543.76" x2="120.24" y2="1517.99"/>
    <line class="cls-1" x1="178.56" y1="1517.99" x2="178.56" y2="1543.76"/>
    <rect class="cls-1" x="192.95" y="1480.72" width="13.03" height="37.38"/>
    <rect class="cls-1" x="227.26" y="1480.72" width="13.03" height="37.38"/>
    <rect class="cls-1" x="250" y="1480.72" width="13.03" height="37.38"/>
    <rect class="cls-1" x="269.74" y="1480.72" width="13.03" height="37.38"/>
    <rect class="cls-1" x="303.8" y="1480.72" width="13.03" height="37.38"/>
    <line class="cls-1" x1="197.86" y1="1517.99" x2="197.86" y2="1543.76"/>
    <line class="cls-1" x1="216.32" y1="1543.79" x2="216.32" y2="1480.64"/>
    <line class="cls-1" x1="233.26" y1="1543.76" x2="233.26" y2="1517.99"/>
    <line class="cls-1" x1="294.49" y1="1480.64" x2="294.49" y2="1543.79"/>
    <line class="cls-1" x1="275.74" y1="1544.89" x2="275.74" y2="1517.99"/>
    <line class="cls-1" x1="254.32" y1="1543.76" x2="254.32" y2="1517.99"/>
    <line class="cls-1" x1="312.64" y1="1517.99" x2="312.64" y2="1543.76"/>
    <rect class="cls-1" x="327.88" y="1480.72" width="13.03" height="37.38"/>
    <rect class="cls-1" x="362.19" y="1480.72" width="13.03" height="37.38"/>
    <rect class="cls-1" x="384.93" y="1480.72" width="13.03" height="37.38"/>
    <rect class="cls-1" x="404.67" y="1480.72" width="13.03" height="37.38"/>
    <rect class="cls-1" x="438.73" y="1480.72" width="13.03" height="37.38"/>
    <line class="cls-1" x1="332.79" y1="1518.04" x2="332.79" y2="1543.81"/>
    <line class="cls-1" x1="351.25" y1="1543.79" x2="351.25" y2="1480.64"/>
    <line class="cls-1" x1="368.19" y1="1543.81" x2="368.19" y2="1518.04"/>
    <line class="cls-1" x1="429.42" y1="1480.64" x2="429.42" y2="1543.79"/>
    <line class="cls-1" x1="410.67" y1="1544.94" x2="410.67" y2="1518.04"/>
    <line class="cls-1" x1="389.25" y1="1543.81" x2="389.25" y2="1518.04"/>
    <line class="cls-1" x1="447.57" y1="1518.04" x2="447.57" y2="1543.81"/>
    <line class="cls-1" x1="467.11" y1="1518.04" x2="467.11" y2="1543.81"/>
    <rect class="cls-1" x="438.81" y="1480.66" width="13.03" height="37.38"/>
    <line class="cls-1" x1="429.5" y1="1480.58" x2="429.5" y2="1543.73"/>
    <line class="cls-1" x1="447.65" y1="1518.49" x2="447.65" y2="1544.26"/>
    <line class="cls-1" x1="467.19" y1="1518.49" x2="467.19" y2="1544.26"/>
    <rect class="cls-1" x="461.03" y="1480.66" width="13.03" height="37.38"/>
    <rect class="cls-1" x="490.95" y="1480.66" width="13.03" height="37.38"/>
    <rect class="cls-1" x="513.69" y="1480.66" width="13.03" height="37.38"/>
    <rect class="cls-1" x="533.43" y="1480.66" width="13.03" height="37.38"/>
    <line class="cls-1" x1="484.4" y1="1543.73" x2="484.4" y2="1480.58"/>
    <line class="cls-1" x1="499.15" y1="1543.7" x2="499.15" y2="1517.93"/>
    <line class="cls-1" x1="541.63" y1="1543.76" x2="541.63" y2="1517.93"/>
    <line class="cls-1" x1="520.21" y1="1543.7" x2="520.21" y2="1517.93"/>
  </g>
</svg>