<?xml version="1.0" encoding="UTF-8"?>
<svg id="Layer_2" data-name="Layer 2" xmlns="http://www.w3.org/2000/svg" viewBox="0 0 1250.07 1549.02">
  <defs>
    <style>
      .cls-1 {
        fill: none;
        stroke: #231f20;
        stroke-miterlimit: 10;
      }
    </style>
  </defs>
  <g id="Layer_2-2" data-name="Layer 2">
    <line class="cls-1" x1=".5" y1="1505.32" x2=".5" y2=".43"/>
    <line class="cls-1" x1="23.94" y1="1544.62" x2="572.83" y2="1544.62"/>
    <line class="cls-1" x1="592.31" y1="1470.92" x2="592.31" y2="1257.47"/>
    <rect class="cls-1" x="48.4" y="1481.01" width="11.86" height="37.38"/>
    <rect class="cls-1" x="79.63" y="1481.01" width="11.86" height="37.38"/>
    <rect class="cls-1" x="100.33" y="1481.01" width="11.86" height="37.38"/>
    <rect class="cls-1" x="118.3" y="1481.01" width="11.86" height="37.38"/>
    <rect class="cls-1" x="149.31" y="1481.01" width="11.86" height="37.38"/>
    <line class="cls-1" x1="47.94" y1="1481.47" x2="36.22" y2="1481.47"/>
    <line class="cls-1" x1="36.22" y1="1545.75" x2="36.22" y2="1481.47"/>
    <line class="cls-1" x1="52.88" y1="1518.85" x2="52.88" y2="1544.62"/>
    <line class="cls-1" x1="59.8" y1="1481.47" x2="69.68" y2="1481.47"/>
    <line class="cls-1" x1="69.68" y1="1544.08" x2="69.68" y2="1480.93"/>
    <line class="cls-1" x1="85.1" y1="1544.62" x2="85.1" y2="1518.85"/>
    <line class="cls-1" x1="69.68" y1="1481.47" x2="79.17" y2="1481.47"/>
    <line class="cls-1" x1="91.03" y1="1481.47" x2="99.87" y2="1481.47"/>
    <line class="cls-1" x1="111.73" y1="1481.47" x2="117.83" y2="1481.47"/>
    <line class="cls-1" x1="129.69" y1="1481.47" x2="148.84" y2="1481.47"/>
    <line class="cls-1" x1="140.83" y1="1480.93" x2="140.83" y2="1544.08"/>
    <line class="cls-1" x1="123.76" y1="1545.75" x2="123.76" y2="1518.85"/>
    <line class="cls-1" x1="104.26" y1="1544.62" x2="104.26" y2="1518.85"/>
    <line class="cls-1" x1="157.35" y1="1518.85" x2="157.35" y2="1544.62"/>
    <line class="cls-1" x1="160.7" y1="1481.47" x2="169.21" y2="1481.47"/>
    <line class="cls-1" x1="175.13" y1="1518.85" x2="175.13" y2="1544.62"/>
    <rect class="cls-1" x="169.53" y="1481.01" width="11.86" height="37.38"/>
    <rect class="cls-1" x="200.76" y="1481.01" width="11.86" height="37.38"/>
    <rect class="cls-1" x="221.46" y="1481.01" width="11.86" height="37.38"/>
    <rect class="cls-1" x="239.43" y="1481.01" width="11.86" height="37.38"/>
    <rect class="cls-1" x="270.44" y="1481.01" width="11.86" height="37.38"/>
    <line class="cls-1" x1="169.07" y1="1480.9" x2="157.35" y2="1480.9"/>
    <line class="cls-1" x1="180.93" y1="1480.9" x2="190.81" y2="1480.9"/>
    <line class="cls-1" x1="190.81" y1="1544.08" x2="190.81" y2="1480.93"/>
    <line class="cls-1" x1="206.23" y1="1544.05" x2="206.23" y2="1518.28"/>
    <line class="cls-1" x1="190.81" y1="1480.9" x2="200.3" y2="1480.9"/>
    <line class="cls-1" x1="212.16" y1="1480.9" x2="221" y2="1480.9"/>
    <line class="cls-1" x1="232.86" y1="1480.9" x2="238.96" y2="1480.9"/>
    <line class="cls-1" x1="250.82" y1="1480.9" x2="269.97" y2="1480.9"/>
    <line class="cls-1" x1="261.96" y1="1480.93" x2="261.96" y2="1544.08"/>
    <line class="cls-1" x1="244.89" y1="1545.18" x2="244.89" y2="1518.28"/>
    <line class="cls-1" x1="225.39" y1="1544.05" x2="225.39" y2="1518.28"/>
    <line class="cls-1" x1="278.48" y1="1518.28" x2="278.48" y2="1544.05"/>
    <line class="cls-1" x1="281.83" y1="1480.9" x2="290.33" y2="1480.9"/>
    <line class="cls-1" x1="296.26" y1="1518.28" x2="296.26" y2="1544.05"/>
    <rect class="cls-1" x="291.58" y="1481.01" width="11.86" height="37.38"/>
    <rect class="cls-1" x="322.81" y="1481.01" width="11.86" height="37.38"/>
    <rect class="cls-1" x="343.51" y="1481.01" width="11.86" height="37.38"/>
    <rect class="cls-1" x="361.47" y="1481.01" width="11.86" height="37.38"/>
    <rect class="cls-1" x="392.48" y="1481.01" width="11.86" height="37.38"/>
    <line class="cls-1" x1="291.11" y1="1480.9" x2="279.39" y2="1480.9"/>
    <line class="cls-1" x1="302.97" y1="1480.9" x2="312.85" y2="1480.9"/>
    <line class="cls-1" x1="312.85" y1="1544.08" x2="312.85" y2="1480.93"/>
    <line class="cls-1" x1="328.27" y1="1544.05" x2="328.27" y2="1518.28"/>
    <line class="cls-1" x1="312.85" y1="1480.9" x2="322.34" y2="1480.9"/>
    <line class="cls-1" x1="334.2" y1="1480.9" x2="343.04" y2="1480.9"/>
    <line class="cls-1" x1="354.9" y1="1480.9" x2="361" y2="1480.9"/>
    <line class="cls-1" x1="372.86" y1="1480.9" x2="392.01" y2="1480.9"/>
    <line class="cls-1" x1="384" y1="1480.93" x2="384" y2="1544.08"/>
    <line class="cls-1" x1="366.93" y1="1545.18" x2="366.93" y2="1518.28"/>
    <line class="cls-1" x1="347.44" y1="1544.05" x2="347.44" y2="1518.28"/>
    <line class="cls-1" x1="400.52" y1="1518.28" x2="400.52" y2="1544.05"/>
    <line class="cls-1" x1="403.87" y1="1480.9" x2="412.38" y2="1480.9"/>
    <rect class="cls-1" x="414.39" y="1481.01" width="11.86" height="37.38"/>
    <rect class="cls-1" x="445.62" y="1481.01" width="11.86" height="37.38"/>
    <rect class="cls-1" x="466.32" y="1481.01" width="11.86" height="37.38"/>
    <rect class="cls-1" x="484.29" y="1481.01" width="11.86" height="37.38"/>
    <rect class="cls-1" x="515.29" y="1481.01" width="11.86" height="37.38"/>
    <line class="cls-1" x1="413.92" y1="1480.96" x2="402.2" y2="1480.96"/>
    <line class="cls-1" x1="418.86" y1="1518.34" x2="418.86" y2="1544.11"/>
    <line class="cls-1" x1="425.78" y1="1480.96" x2="435.66" y2="1480.96"/>
    <line class="cls-1" x1="435.66" y1="1544.08" x2="435.66" y2="1480.93"/>
    <line class="cls-1" x1="451.08" y1="1544.11" x2="451.08" y2="1518.34"/>
    <line class="cls-1" x1="435.66" y1="1480.96" x2="445.15" y2="1480.96"/>
    <line class="cls-1" x1="457.01" y1="1480.96" x2="465.85" y2="1480.96"/>
    <line class="cls-1" x1="477.71" y1="1480.96" x2="483.82" y2="1480.96"/>
    <line class="cls-1" x1="495.68" y1="1480.96" x2="514.83" y2="1480.96"/>
    <line class="cls-1" x1="506.81" y1="1480.93" x2="506.81" y2="1544.08"/>
    <line class="cls-1" x1="489.75" y1="1545.24" x2="489.75" y2="1518.34"/>
    <line class="cls-1" x1="470.25" y1="1544.11" x2="470.25" y2="1518.34"/>
    <line class="cls-1" x1="523.33" y1="1518.34" x2="523.33" y2="1544.11"/>
    <line class="cls-1" x1="526.69" y1="1480.96" x2="535.19" y2="1480.96"/>
    <line class="cls-1" x1="541.12" y1="1518.34" x2="541.12" y2="1544.11"/>
    <line class="cls-1" x1="541.12" y1="1518.34" x2="541.12" y2="1480.96"/>
    <line class="cls-1" x1="535.19" y1="1480.96" x2="541.12" y2="1480.96"/>
    <line class="cls-1" x1="560.55" y1="1544.05" x2="560.55" y2="1480.96"/>
    <line class="cls-1" x1="541.12" y1="1480.96" x2="560.55" y2="1480.96"/>
    <line class="cls-1" x1="572.83" y1="1544.62" x2="581.72" y2="1544.62"/>
    <line class="cls-1" x1="581.72" y1="1544.62" x2="581.72" y2="1480.9"/>
    <line class="cls-1" x1="592.31" y1="1470.92" x2="592.31" y2="1480.9"/>
    <line class="cls-1" x1="581.72" y1="1480.9" x2="592.31" y2="1480.9"/>
    <line class="cls-1" x1=".5" y1="1505.32" x2="9.77" y2="1505.32"/>
    <line class="cls-1" x1="9.77" y1="1548.52" x2="9.77" y2="1505.32"/>
    <line class="cls-1" x1="23.94" y1="1548.52" x2="9.77" y2="1548.52"/>
    <line class="cls-1" x1="24.21" y1="1544.62" x2="24.21" y2="1548.52"/>
    <line class="cls-1" x1="148.74" y1="86.42" x2=".5" y2=".43"/>
    <path class="cls-1" d="M148.74,86.42c100.34,926.46,294.16,1066.21,443.57,1171.05"/>
    <circle class="cls-1" cx="112.77" cy="1091.35" r="37.84"/>
    <line class="cls-1" x1="21.24" y1="78.09" x2="58.51" y2="114.23"/>
    <path class="cls-1" d="M58.51,114.23c38.52,291.11,127.36,1080.84,492.33,1193.79"/>
    <path class="cls-1" d="M39.87,555.36c83.89,477.74,264.8,752.66,520.67,789.46"/>
    <line class="cls-1" x1="24.21" y1="1290.32" x2="568.97" y2="1355.82"/>
    <line class="cls-1" x1="569.85" y1="1390.08" x2="568.97" y2="1355.82"/>
    <line class="cls-1" x1="24.21" y1="1290.32" x2="23.94" y2="1323.07"/>
    <line class="cls-1" x1="569.85" y1="1390.08" x2="23.94" y2="1323.07"/>
    <line class="cls-1" x1="560.55" y1="1480.96" x2="36.22" y2="1480.96"/>
    <line class="cls-1" x1="12.53" y1="15.03" x2="12.53" y2="1471.37"/>
    <line class="cls-1" x1="12.53" y1="1471.37" x2="579.71" y2="1471.37"/>
    <line class="cls-1" x1="579.71" y1="1471.37" x2="579.71" y2="1269.52"/>
    <path class="cls-1" d="M128.33,82.9c100.34,926.46,301.97,1082.35,451.38,1187.2"/>
    <line class="cls-1" x1="12.53" y1="15.03" x2="128.33" y2="82.9"/>
    <rect class="cls-1" x="24.21" y="1396.59" width="545.2" height="13.55" transform="translate(-35.79 8.05) rotate(-1.47)"/>
    <line class="cls-1" x1="681.2" y1="1540.57" x2="1230.09" y2="1540.57"/>
    <line class="cls-1" x1="1249.57" y1="1466.88" x2="1249.57" y2="1253.42"/>
    <rect class="cls-1" x="705.67" y="1476.97" width="11.86" height="37.38"/>
    <rect class="cls-1" x="736.9" y="1476.97" width="11.86" height="37.38"/>
    <rect class="cls-1" x="757.6" y="1476.97" width="11.86" height="37.38"/>
    <rect class="cls-1" x="775.56" y="1476.97" width="11.86" height="37.38"/>
    <rect class="cls-1" x="806.57" y="1476.97" width="11.86" height="37.38"/>
    <line class="cls-1" x1="705.2" y1="1477.42" x2="693.48" y2="1477.42"/>
    <line class="cls-1" x1="693.48" y1="1541.7" x2="693.48" y2="1477.42"/>
    <line class="cls-1" x1="710.14" y1="1514.8" x2="710.14" y2="1540.57"/>
    <line class="cls-1" x1="717.06" y1="1477.42" x2="726.94" y2="1477.42"/>
    <line class="cls-1" x1="726.94" y1="1540.04" x2="726.94" y2="1476.89"/>
    <line class="cls-1" x1="742.36" y1="1540.57" x2="742.36" y2="1514.8"/>
    <line class="cls-1" x1="726.94" y1="1477.42" x2="736.43" y2="1477.42"/>
    <line class="cls-1" x1="748.29" y1="1477.42" x2="757.13" y2="1477.42"/>
    <line class="cls-1" x1="768.99" y1="1477.42" x2="775.1" y2="1477.42"/>
    <line class="cls-1" x1="786.95" y1="1477.42" x2="806.1" y2="1477.42"/>
    <line class="cls-1" x1="798.09" y1="1476.89" x2="798.09" y2="1540.04"/>
    <line class="cls-1" x1="781.03" y1="1541.7" x2="781.03" y2="1514.8"/>
    <line class="cls-1" x1="761.53" y1="1540.57" x2="761.53" y2="1514.8"/>
    <line class="cls-1" x1="814.61" y1="1514.8" x2="814.61" y2="1540.57"/>
    <line class="cls-1" x1="817.96" y1="1477.42" x2="826.47" y2="1477.42"/>
    <line class="cls-1" x1="832.4" y1="1514.8" x2="832.4" y2="1540.57"/>
    <rect class="cls-1" x="826.8" y="1476.97" width="11.86" height="37.38"/>
    <rect class="cls-1" x="858.03" y="1476.97" width="11.86" height="37.38"/>
    <rect class="cls-1" x="878.73" y="1476.97" width="11.86" height="37.38"/>
    <rect class="cls-1" x="896.69" y="1476.97" width="11.86" height="37.38"/>
    <rect class="cls-1" x="927.7" y="1476.97" width="11.86" height="37.38"/>
    <line class="cls-1" x1="826.33" y1="1476.86" x2="814.61" y2="1476.86"/>
    <line class="cls-1" x1="838.19" y1="1476.86" x2="848.07" y2="1476.86"/>
    <line class="cls-1" x1="848.07" y1="1540.04" x2="848.07" y2="1476.89"/>
    <line class="cls-1" x1="863.49" y1="1540.01" x2="863.49" y2="1514.24"/>
    <line class="cls-1" x1="848.07" y1="1476.86" x2="857.56" y2="1476.86"/>
    <line class="cls-1" x1="869.42" y1="1476.86" x2="878.26" y2="1476.86"/>
    <line class="cls-1" x1="890.12" y1="1476.86" x2="896.23" y2="1476.86"/>
    <line class="cls-1" x1="908.08" y1="1476.86" x2="927.23" y2="1476.86"/>
    <line class="cls-1" x1="919.22" y1="1476.89" x2="919.22" y2="1540.04"/>
    <line class="cls-1" x1="902.15" y1="1541.14" x2="902.15" y2="1514.24"/>
    <line class="cls-1" x1="882.66" y1="1540.01" x2="882.66" y2="1514.24"/>
    <line class="cls-1" x1="935.74" y1="1514.24" x2="935.74" y2="1540.01"/>
    <line class="cls-1" x1="939.09" y1="1476.86" x2="947.6" y2="1476.86"/>
    <rect class="cls-1" x="948.84" y="1476.97" width="11.86" height="37.38"/>
    <rect class="cls-1" x="980.07" y="1476.97" width="11.86" height="37.38"/>
    <rect class="cls-1" x="1000.77" y="1476.97" width="11.86" height="37.38"/>
    <rect class="cls-1" x="1018.73" y="1476.97" width="11.86" height="37.38"/>
    <rect class="cls-1" x="1049.74" y="1476.97" width="11.86" height="37.38"/>
    <line class="cls-1" x1="948.37" y1="1476.86" x2="936.65" y2="1476.86"/>
    <line class="cls-1" x1="953.31" y1="1514.24" x2="953.31" y2="1540.01"/>
    <line class="cls-1" x1="960.23" y1="1476.86" x2="970.11" y2="1476.86"/>
    <line class="cls-1" x1="970.11" y1="1540.04" x2="970.11" y2="1476.89"/>
    <line class="cls-1" x1="985.53" y1="1540.01" x2="985.53" y2="1514.24"/>
    <line class="cls-1" x1="970.11" y1="1476.86" x2="979.6" y2="1476.86"/>
    <line class="cls-1" x1="991.46" y1="1476.86" x2="1000.3" y2="1476.86"/>
    <line class="cls-1" x1="1012.16" y1="1476.86" x2="1018.27" y2="1476.86"/>
    <line class="cls-1" x1="1030.13" y1="1476.86" x2="1049.27" y2="1476.86"/>
    <line class="cls-1" x1="1041.26" y1="1476.89" x2="1041.26" y2="1540.04"/>
    <line class="cls-1" x1="1024.2" y1="1541.14" x2="1024.2" y2="1514.24"/>
    <line class="cls-1" x1="1004.7" y1="1540.01" x2="1004.7" y2="1514.24"/>
    <line class="cls-1" x1="1057.78" y1="1514.24" x2="1057.78" y2="1540.01"/>
    <line class="cls-1" x1="1061.13" y1="1476.86" x2="1069.64" y2="1476.86"/>
    <rect class="cls-1" x="1071.65" y="1476.97" width="11.86" height="37.38"/>
    <rect class="cls-1" x="1102.88" y="1476.97" width="11.86" height="37.38"/>
    <rect class="cls-1" x="1123.58" y="1476.97" width="11.86" height="37.38"/>
    <rect class="cls-1" x="1141.55" y="1476.97" width="11.86" height="37.38"/>
    <rect class="cls-1" x="1172.56" y="1476.97" width="11.86" height="37.38"/>
    <line class="cls-1" x1="1071.19" y1="1476.91" x2="1059.47" y2="1476.91"/>
    <line class="cls-1" x1="1076.12" y1="1514.29" x2="1076.12" y2="1540.06"/>
    <line class="cls-1" x1="1083.05" y1="1476.91" x2="1092.92" y2="1476.91"/>
    <line class="cls-1" x1="1092.92" y1="1540.04" x2="1092.92" y2="1476.89"/>
    <line class="cls-1" x1="1108.35" y1="1540.06" x2="1108.35" y2="1514.29"/>
    <line class="cls-1" x1="1092.92" y1="1476.91" x2="1102.42" y2="1476.91"/>
    <line class="cls-1" x1="1114.28" y1="1476.91" x2="1123.12" y2="1476.91"/>
    <line class="cls-1" x1="1134.97" y1="1476.91" x2="1141.08" y2="1476.91"/>
    <line class="cls-1" x1="1152.94" y1="1476.91" x2="1172.09" y2="1476.91"/>
    <line class="cls-1" x1="1164.08" y1="1476.89" x2="1164.08" y2="1540.04"/>
    <line class="cls-1" x1="1147.01" y1="1541.19" x2="1147.01" y2="1514.29"/>
    <line class="cls-1" x1="1127.51" y1="1540.06" x2="1127.51" y2="1514.29"/>
    <line class="cls-1" x1="1180.59" y1="1514.29" x2="1180.59" y2="1540.06"/>
    <line class="cls-1" x1="1183.95" y1="1476.91" x2="1192.45" y2="1476.91"/>
    <line class="cls-1" x1="1198.38" y1="1514.29" x2="1198.38" y2="1540.06"/>
    <line class="cls-1" x1="1198.38" y1="1514.29" x2="1198.38" y2="1476.91"/>
    <line class="cls-1" x1="1192.45" y1="1476.91" x2="1198.38" y2="1476.91"/>
    <line class="cls-1" x1="1217.81" y1="1540.01" x2="1217.81" y2="1476.91"/>
    <line class="cls-1" x1="1198.38" y1="1476.91" x2="1217.81" y2="1476.91"/>
    <line class="cls-1" x1="1230.09" y1="1540.57" x2="1238.98" y2="1540.57"/>
    <line class="cls-1" x1="1238.98" y1="1540.57" x2="1238.98" y2="1476.86"/>
    <line class="cls-1" x1="1249.57" y1="1466.88" x2="1249.57" y2="1476.86"/>
    <line class="cls-1" x1="1238.98" y1="1476.86" x2="1249.57" y2="1476.86"/>
    <line class="cls-1" x1="657.76" y1="1501.28" x2="667.03" y2="1501.28"/>
    <line class="cls-1" x1="667.03" y1="1544.48" x2="667.03" y2="1501.28"/>
    <line class="cls-1" x1="681.2" y1="1544.48" x2="667.03" y2="1544.48"/>
    <line class="cls-1" x1="681.47" y1="1540.57" x2="681.47" y2="1544.48"/>
    <line class="cls-1" x1="1217.81" y1="1476.91" x2="693.48" y2="1476.91"/>
    <line class="cls-1" x1="669.79" y1="1467.32" x2="1236.97" y2="1467.32"/>
    <line class="cls-1" x1="1236.97" y1="1467.32" x2="1236.97" y2="1265.48"/>
    <line class="cls-1" x1="1249.57" y1="1253.42" x2="1249.57" y2="1118.62"/>
    <line class="cls-1" x1="657.76" y1="1118.62" x2="1249.57" y2="1118.62"/>
    <line class="cls-1" x1="669.79" y1="1132.17" x2="1236.97" y2="1132.17"/>
    <line class="cls-1" x1="1236.97" y1="1265.48" x2="1236.97" y2="1132.17"/>
    <line class="cls-1" x1="657.76" y1="1501.28" x2="657.76" y2="1118.62"/>
    <line class="cls-1" x1="669.79" y1="1467.32" x2="669.79" y2="1132.17"/>
    <rect class="cls-1" x="685.2" y="1230.58" width="524.33" height="11.02" transform="translate(300.61 -180.64) rotate(12.93)"/>
    <rect class="cls-1" x="693.86" y="1406.15" width="498.97" height="8.47" transform="translate(-157.97 119.57) rotate(-6.69)"/>
    <rect class="cls-1" x="669.79" y="1329.39" width="567.18" height="30.76"/>
  </g>
</svg>